<?xml version="1.0" encoding="utf-8"?>
<!-- Generator: Adobe Illustrator 24.1.1, SVG Export Plug-In . SVG Version: 6.00 Build 0)  -->
<svg version="1.1" id="Layer_1" xmlns="http://www.w3.org/2000/svg" xmlns:xlink="http://www.w3.org/1999/xlink" x="0px" y="0px"
	 viewBox="0 0 647.2 827.8" style="enable-background:new 0 0 647.2 827.8;" xml:space="preserve">
<style type="text/css">
	.st0{fill:#F2B90D;}
	.st1{fill:#003A66;}
	.st2{fill:#003765;}
</style>
<path class="st0" d="M376.2,434.3h106.7v-44.4c-1.2-5.4-3.4-9.9-7.4-13l-0.7-97.1c-7-31.9-42.2-42.5-98.5-42.5
	c-57.1,0-91.5,10.6-98.5,42.5l-0.7,97.1c-4,3.1-6.3,7.6-7.4,13l0,44.4C269.5,434.3,376.2,434.3,376.2,434.3z"/>
<g>
	<g>
		<path d="M448.7,615.6c13.4,0.9,26.7,0.6,39.5,2.9c12.6,2.3,18.3,12.8,16.1,25.1c-1.1,5.9-4.8,9.8-10.1,12.7
			c14.6,8.4,17.9,20.5,9.3,33c-4.2,6-10.3,9.5-17.3,9.9c-12.4,0.7-24.8,0.2-37.5,0.2C448.7,672.2,448.7,644.5,448.7,615.6z
			 M466.2,665c0,7,0,13.5,0,20.1c5.4,0,10.6,0.4,15.6-0.1c5.3-0.5,8.7-5,8.6-10.1c-0.1-5.4-3.8-9.5-9.4-9.8
			C476.2,664.7,471.4,665,466.2,665z M465.2,650.6c5.5-0.3,10.7-0.2,15.8-0.9c4.9-0.7,7-3.8,6.9-8.6c-0.1-5.1-2.8-8.8-7.6-9.2
			c-4.9-0.4-9.9-0.1-15.1-0.1C465.2,637.9,465.2,643.8,465.2,650.6z"/>
		<path d="M357.2,658.1c-1.4,7-2.2,14.3-4.5,21.1c-5,14.7-16.2,22.1-31.6,22.1c-14.9,0-26.4-7.7-31.2-22
			c-4.7-13.9-4.8-28.2,0.2-42.1c5.4-15,16.6-22,33.7-21.8c13.4,0.2,24.9,8.6,29.3,22.6C355.2,644.3,355.8,651.1,357.2,658.1z
			 M339,658c-0.9-5.1-1.4-10.8-3-16.1c-2.1-7.1-7.8-11-14.5-11.1c-6.8,0-12.2,3.7-14.6,10.9c-3.8,10.8-3.7,21.8-0.2,32.7
			c2.4,7.4,8,11.4,14.8,11.4c6.8,0,12.3-4.1,14.6-11.6C337.5,669.1,338,663.8,339,658z"/>
		<path d="M199.8,700c-5.6,0-11,0-16.9,0c0-11.2,0-22.4,0-33.8c-9.1,0-17.7,0-26.6,0c0,11.3,0,22.3,0,33.7c-5.9,0-11.4,0-17.2,0
			c0-27.7,0-55.3,0-83.1c5.6,0,11,0,16.8,0c0,10.7,0,21.2,0,32.1c9,0,17.6,0,26.6,0c0-10.5,0-21.1,0-32c6,0,11.5,0,17.3,0
			C199.8,644.6,199.8,672.2,199.8,700z"/>
		<path d="M245.2,615.4c17.9,0.1,31.1,12.1,33,31.6c0.9,9.1,0.7,18.7-1.1,27.6c-3.6,18.2-17.3,27.6-36.4,26.6
			c-15.1-0.8-27.5-13.4-29.8-30.2c-1.6-11.6-1.7-23,2.7-34.1C219.3,622.5,229.9,615.4,245.2,615.4z M262.2,658.5
			c-0.2-0.1-0.5-0.1-0.7-0.2c-0.2-3-0.2-6.1-0.6-9.1c-0.4-2.5-1-5.1-1.8-7.5c-2.5-7-7.7-10.9-14.2-11c-6.6-0.1-12,3.5-14.5,10.4
			c-4.1,11.4-3.9,23,0.1,34.4c2.3,6.4,8.1,10.3,14.3,10.2c6.9-0.1,11.7-3.7,13.7-10.1C260.3,670.2,261,664.3,262.2,658.5z"/>
		<path d="M561.2,616.7c6,0,11.5,0,17.4,0c0,3.8,0,7.4,0,11c0,14.3-0.4,28.7,0.1,43c0.7,19.1-11.9,30.4-30.7,30.6
			c-11.1,0.1-21.1-2.7-27.1-12.7c-2.5-4.3-4.3-9.6-4.4-14.6c-0.5-18.6-0.2-37.2-0.2-55.8c0-0.4,0.2-0.9,0.3-1.5c5.4,0,10.9,0,17,0
			c0,1.6,0,3.2,0,4.8c0,16.3-0.1,32.6,0,48.9c0.1,11.2,6.5,16.5,17.4,14.6c6.1-1,9.9-5.4,10-12.2c0.2-16.5,0.1-32.9,0.1-49.4
			C561.2,621.4,561.2,619.3,561.2,616.7z"/>
		<path d="M0,675.8c5.3-0.8,10.6-1.7,15.9-2.5c4.4,10.6,8.5,13.4,17.9,12.6c4.1-0.3,7.3-2.2,8.5-6.4c1.3-4.1-0.4-7.4-3.7-9.4
			c-4.1-2.5-8.7-4.3-13.1-6.3c-3.8-1.8-7.8-3.4-11.5-5.4c-9.2-4.8-12.7-12.7-11.5-22.8c1.1-9.2,6.8-15.1,15.1-18.3
			c7.9-3,16.1-2.9,24.2-0.5c10.2,3.1,15.6,10.3,16.9,21.2c-5.2,0.7-10.2,1.3-15.2,2c-5-8.9-9.5-11.3-17.5-9.2
			c-6.6,1.7-8.9,9.2-3.8,13.8c2.7,2.5,6.4,3.9,9.8,5.4c5.5,2.5,11.3,4.3,16.7,7c7.8,3.8,11.6,10.3,11.5,19.1
			c-0.2,9.2-3.3,16.9-11.8,21c-11.7,5.7-23.8,5.8-35.5-0.3C4.6,692.7,0.7,685.5,0,675.8z"/>
		<path d="M645.9,638.3c-4.5,0.6-8.8,1.3-13.2,1.6c-1,0.1-2.7-1-3.2-2c-3.8-6.7-10.1-9.2-17.3-6.5c-6.5,2.5-7.6,10.2-1.7,14.5
			c3.1,2.3,7,3.6,10.6,5.1c4.9,2.1,9.9,3.8,14.7,6.1c7.2,3.6,11.4,9.3,11.5,17.7c0.1,9.1-2.4,17.2-10.8,21.7
			c-13.2,7.2-26.6,6.7-39.3-1.3c-6.6-4.1-9.8-11.3-9.4-19.5c5.1-0.8,10.3-1.6,15.4-2.3c3.3,10,8.2,13.3,18,12.4
			c4-0.4,7.1-2.2,8.3-6.1c1.3-4.3-0.3-8-4.3-10.1c-4.1-2.2-8.5-3.9-12.8-5.9c-3.8-1.8-7.8-3.4-11.5-5.5
			c-8.2-4.7-12.1-11.9-11.4-21.2c0.7-8.9,5.4-15.5,13.6-19c9.8-4.1,19.9-4.1,29.6,0.3C640.9,622.2,644.7,629.1,645.9,638.3z"/>
		<path d="M113.5,673.8c5.4,0.6,10.8,1.1,16.2,1.7c-1.8,15.7-15.2,25.4-27,25.9c-17.8,0.7-30-8.2-34.3-25.6
			c-3.3-13.5-3.4-27.2,1.8-40.3c8.2-20.6,29.2-23.6,43.9-17.1c10.2,4.5,14,13.6,15.7,24.3c-5.5,0.3-10.7,0.6-16,0.9
			c-0.7-1.7-1.4-3.5-2.3-5.2c-2.4-4.7-6.4-7.1-11.7-7.3c-5.3-0.2-9.5,2.2-11.5,6.8c-5.9,13-6.5,26.4-0.7,39.7
			c2.3,5.4,7,7.7,12.9,7.6c5.5-0.1,9-3,11.4-7.7C112.2,676.2,112.8,675.1,113.5,673.8z"/>
		<path d="M416.3,700c-16.9,0-33.5,0-50.4,0c0-27.7,0-55.3,0-83.2c5.5,0,10.9,0,16.8,0c0,22.4,0,44.8,0,67.6c11.4,0,22.3,0,33.6,0
			C416.3,689.7,416.3,694.6,416.3,700z"/>
	</g>
	<g>
		<path class="st1" d="M289.4,493c-5.2-3.5-6.1-8.3-5.8-13.9c0.2-5.6,0.1-11.2,0.1-17.4c-3.2,0-6.1,0.1-8.9,0
			c-4.5-0.1-6.6-2.3-6.7-6.8c-0.1-4.6-0.1-9.1,0-13.7c0.1-5.4,1.8-7.1,7.1-7.1c68.4,0,136.8,0,205.2,0c4.7,0,6.7,1.8,6.8,6.5
			c0.2,4.4,0.2,8.8,0,13.3c-0.2,5.4-3,7.8-8.5,7.9c-2.6,0-5.2,0-8.5,0c0,5.7-0.2,11.2,0,16.8c0.2,5.5,0.1,10.7-5.7,13.8
			c6.2-1.5,10.1-5.7,12.2-11.1c2.5-6.5,4.5-12.5,12.2-15.5c3-1.1,5-7,5.8-11c1-5,0.3-10.3,0.2-15.5c0-1.6-0.2-3.6-1.1-4.8
			c-3.4-4.4-2.7-9.5-2.8-14.4c-0.2-11.4-0.2-22.8-0.8-34.2c-0.2-3-1.5-6.5-3.5-8.6c-2.7-2.8-2.8-5.8-2.8-9.1
			c0-28.8,0.1-57.6-0.1-86.4c0-4.2-1.4-8.3-2.2-12.4c-0.7-3.6-2.1-7.3-2.1-10.9c-0.2-36.4-0.1-72.8-0.1-109.2
			c0-14.9-8.6-23.4-23.6-23.4c-2.9,0-5.7,0-8.6,0c2.1-5.8,4.2-11.2,5.8-16.6c1.6-5.4,2.7-10.9,4-16.5c12-2.8,27.8,4.6,35.7,17.3
			c4.9,7.9,7.5,16.6,7.5,25.9c0,129,0,258.1,0,387.1c0,21.7-11.2,39.3-29.6,46c-4.6,1.7-9.8,2.7-14.7,2.7
			c-87.9,0.2-175.8,0.2-263.7,0.1c-22.5,0-43-18.2-44.6-40.8c-1.3-18.2-0.9-36.5-0.9-54.8c-0.1-113,0-226.1-0.1-339.1
			c0-21.9,12.9-39.6,32.7-44.6c3.1-0.8,6.3-1.3,9.5-1.3c27-0.1,53.9-0.1,80.9-0.1c0.7,0,1.5,0.1,1.5,0.1c3.5,11.8,6.8,23,10.2,34.6
			c-6.2,0-13,0-19.8,0c-22.9,0-45.7,0.1-68.6,0.1c-16.6,0-25.3,8.9-25.3,25.4c0,40.1,0,80.1,0,120.2c0,1.3,0,2.8-0.5,4
			c-9.4,19.8-10,40.8-7.5,62c0.6,4.8,4.2,9.2,6.3,13.8c0.8,1.8,1.7,3.8,1.7,5.7c0.1,37.6,0.1,75.3,0,112.9c0,6.8,1.3,13.4,6.9,17.6
			c3.6,2.7,8.3,5.4,12.6,5.5C221.2,493.2,255.3,493,289.4,493z M437.6,462c-40.7,0-80.9,0-121.6,0c0,5.7-0.2,11.2,0,16.6
			c0.2,5.7,0,10.9-7.4,13.8c45.8,0,90.1,0,135.7,0c-5.9-3.2-7-7.5-6.8-12.5C437.7,474.1,437.6,468.2,437.6,462z M323.7,542.2
			c7,0,14,0.1,21,0c4.4-0.1,7.9-3,8.6-6.8c0.9-4.5-1.3-8.5-5.7-10.2c-1.4-0.6-2.9-1.1-4.4-1.1c-13.5,0.1-27.1,0.2-40.6,0.8
			c-5.9,0.2-9.4,4.3-9.2,9.2c0.2,5,4,8.1,10.2,8.1C310.3,542.3,317,542.2,323.7,542.2z"/>
		<path class="st0" d="M359.5,0c43.7-0.1,76.6,25.3,85.4,62.9c4.5,19.3,0.5,37.7-8.2,55.2c-13.1,26.6-30.3,50.5-47.7,74.3
			c-5.4,7.4-11,14.5-16.7,21.7c-5.5,7.1-11.3,7.2-16.7,0.1c-22.4-29.7-44.8-59.5-62.2-92.6c-7-13.3-11.8-27.3-11.6-42.6
			c0.5-30.8,15.2-53.1,41.2-68.4C335.7,3.2,349.5,0,359.5,0z M403,80c-0.6-22-18.2-39.1-39.7-38.5c-22.2,0.5-39.1,18.9-38.4,41.7
			c0.6,20.2,19.2,37.2,40.2,36.7C386.3,119.4,403.6,101.2,403,80z"/>
		<path class="st2" d="M224,398.1c-7.6,23.6-25.9,60.8-32.2,63.2c3.7,7.7,7.5,15.3,15.7,19.4c1.1,0.6,2.7,2.6,2.4,3.2
			c-0.5,1.3-2.2,3.1-3.4,3.1c-4.6-0.1-9.8,0.4-13.7-1.6c-6.7-3.4-12.6-8.4-18.8-12.8c-2.4-1.7-4.2-4.6-2-7c5.3-6,4.9-14,7.9-20.8
			c4.6-10.4,8.8-21,14.2-31c3.1-5.6,2.8-11.4,3.6-17.1c1-7.1,1.6-14.2,2-21.3c0.2-4.1-0.3-8.3-0.8-12.4c-0.7-4.9-1.7-9.8-2.6-14.3
			c-5.5,0-10.7,0.4-15.9-0.1c-5.4-0.5-8.8-4-10.3-9.1c-1-3.5-2.3-7.2-2.1-10.7c0.7-12.6,1.4-25.2,3.2-37.6
			c1.8-13.3,10.1-20.9,23.4-23.1c0.9-0.1,1.7-0.5,2.9-0.9c-0.2-3.2-0.6-6.4-0.4-9.5c0.1-1.4,1.5-3.9,2.3-3.9
			c1.9-0.1,4.9,0.5,5.6,1.9c1.2,2,1.7,5.2,1,7.4c-4.1,12.5-4,25.4-4.7,38.3c-0.7,12.3,2.1,23.5,8.4,33.9c0.7,1.1,1.9,1.9,2.8,2.9
			c0.4-0.3,0.9-0.7,1.3-1c-1.4-2.9-2.4-6.2-4.4-8.7c-5.9-7.6-5.5-16-4.1-24.7c1.8-11.5,3.6-23.1,5.3-34.7c1.1-7.6,2.7-9.4,10.1-10.5
			c2.1-0.3,4.2-0.3,6.4-0.4c8.5-0.5,12.9,3.1,13.4,13.4c0.4,8-1.3,16-2.1,24c-0.1,1.3-0.3,2.7,0.5,4.3c0.5-1.5,1.2-3,1.6-4.5
			c1.7-7.2,4.2-14.4,4.9-21.7c1.6-15.4-9.4-24.4-24.4-20.7c-1.7,0.4-3.4,1-5.5,1.6c1-4.5,2.8-7.8,6.4-10.2c3.7-2.5,3.5-6-0.1-8.5
			c-11.2-7.6-16.5-22-12.6-34.9c3.3-10.6,11.3-16,21.7-17.7c8.8-1.4,17.3,0,25.1,4.5c1.5,0.9,2.7,2.1,5.1,0.3
			c2.4-1.7,5.4-0.1,5.2,3.3c-0.1,3.1-1.2,6.2-2.3,9.1c-2.9,7.2-3.2,14.3,0.2,21.2c1.3,2.8,2.6,4.9-1.3,6.6c-0.6,0.3-0.8,1.7-1.2,2.6
			c-1.3,3.5-2,7.3-4,10.3c-0.9,1.5-4.7,2.6-6.3,1.9c-5.1-2.3-6,2.7-8.1,4.7c-1.2,1.1-0.7,5.5,0.6,7.3c3.4,4.8,4.9,9.7,4.1,15.4
			c-0.1,0.9-0.2,1.9,0.2,2.7c6.2,14.2,5.9,29.1,4.8,44c-0.6,8-0.5,15.3,4.9,21.9c2.7,3.2,4.1,7.5,6.6,10.9
			c4.1,5.6,3.1,11.5,1.4,17.4c-0.9,3.3-3.7,4.7-6.2,2.3c-2.9-2.8-4.8-6.6-7-10.1c-1.6-2.6-2.7-5.5-4.3-8.1
			c-3.6-5.9-7.6-11.7-11.1-17.7c-0.9-1.6-0.7-3.8-1-5.7c-0.6-5.8-1.2-11.5-2.5-17.2c-2.6,7-3.7,14.3-1.4,21.2
			c8,24.1,15.2,48.4,18.9,73.5c1.1,7,0.6,14.3,1,21.4c0.7,10.9,1.7,21.8,2.4,32.8c0.2,2.6-0.6,5.2-1.1,9.2c5.8,3.1,13,7.1,20.2,10.8
			c3.7,2,4.1,3.8,0.5,6.1c-1.7,1.1-3.9,1.8-5.9,1.9c-8.4,0.2-16.8,0-25.1,0.1c-3.9,0-5.7-1.8-5.3-5.6c0.3-2.4,1-4.7,1.4-7.1
			c0.3-2,1.3-4-2-5c-1.1-0.4-1.7-3.3-2-5.2c-2-13.7-3.6-27.4-5.9-41.1C228.4,414.9,226,406.5,224,398.1z"/>
		<path class="st1" d="M336.1,286.3c11,0,21.9,0.1,32.9-0.1c3.3-0.1,4.6,0.7,4.5,4.3c-0.2,17.6-0.2,35.3,0,52.9
			c0,3.5-1.2,4.4-4.5,4.4c-9.7-0.2-19.5,0-29.2-0.1c-8.8-0.1-16.9,2.2-23.9,7.5c-4.8,3.7-10.1,4-15.6,3.3c-5.4-0.6-9.4-5.2-9.5-10.6
			c-0.1-17-0.1-34.1,0.1-51.1c0.1-6.4,4.9-10.5,11.9-10.5C313.9,286.3,325,286.3,336.1,286.3z"/>
		<path class="st1" d="M380.6,286.6c1.9-0.2,3.1-0.3,4.2-0.3c22.2,0,44.4-0.1,66.7,0c7.6,0,11.6,4.1,11.7,11.5c0.1,16,0,32,0.1,47.9
			c0,4.9-0.8,9.3-5.6,11.5c-5.5,2.5-11.3,2.8-16.5-0.7c-6.2-4.1-12.5-7.9-19.9-8.5c-7.6-0.6-15.2-0.3-22.8-0.4
			c-4.9,0-9.8,0.2-14.6-0.1c-1.1-0.1-3.1-1.7-3.1-2.6C380.6,325.7,380.6,306.4,380.6,286.6z"/>
		<path class="st1" d="M377.5,271.9c-10.2,0-20.4,0-30.6,0c-5.5,0-8.4-2.6-8.5-7.3c0-4.5,2.8-7.2,8.1-7.3c20.8-0.1,41.7-0.1,62.5,0
			c5,0,8.1,3,8.2,7.3c0.1,4.1-3.3,7.2-8.3,7.2C398.5,271.9,388,271.9,377.5,271.9z"/>
		<path class="st1" d="M377,420.9c-13.1,0-26.2-0.1-39.2,0.1c-3.5,0-6.2-0.6-6.2-4.7c0-3.9,2.7-4.5,6-4.5c26.6,0.1,53.2,0.1,79.8,0
			c3.6,0,5.9,0.9,5.6,5.1c-0.3,3.5-2.5,4-5.4,4C404.1,420.9,390.6,420.9,377,420.9C377,420.9,377,420.9,377,420.9z"/>
		<path class="st1" d="M377.2,391.6c-13.4,0-26.8,0-40.2,0c-2.8,0-5.3-0.2-5.4-3.8c-0.1-3.5,1.7-5.2,5.4-5.2
			c27,0.1,53.9,0.1,80.9,0.1c3.2,0,5.3,1,5.2,4.7c-0.1,3.9-2.5,4.3-5.6,4.3C404,391.6,390.6,391.6,377.2,391.6z"/>
		<path class="st1" d="M301.9,394.3c7.9,0.1,14.7,6.9,14.7,14.6c-0.1,7.7-7.4,14.9-15.1,14.8c-7.6-0.1-14.7-7.2-14.6-14.7
			C286.9,400.8,293.7,394.2,301.9,394.3z"/>
		<path class="st1" d="M454,423.6c-8.1-0.2-14.4-7.1-14.2-15.3c0.2-7.7,6.8-14.1,14.5-14c8.3,0.1,15,6.7,14.9,14.8
			C469.2,416.8,461.8,423.8,454,423.6z"/>
		<path class="st1" d="M377.5,405.3c-13.7,0-27.4,0-41.1,0c-3.2,0-5.4-1.1-4.7-4.4c0.3-1.3,2.6-3.1,4.1-3.1
			c27.7-0.2,55.3-0.1,83-0.1c2.5,0,4,1,4.1,3.7c0,3.1-1.7,3.8-4.4,3.8C404.9,405.2,391.2,405.3,377.5,405.3
			C377.5,405.3,377.5,405.3,377.5,405.3z"/>
		<path class="st1" d="M311.2,276.6c-4.8,0-8.7-3.7-8.9-8.5c-0.1-4.5,4.1-9,8.4-9.1c4.8-0.2,9.2,3.9,9.3,8.7
			C320.2,272.6,316.2,276.6,311.2,276.6z"/>
		<path class="st1" d="M441.4,276.6c-4.8-0.1-8.8-4-8.7-8.7c0.1-4.7,4.1-8.7,8.8-8.7c5,0,9,4.1,8.9,9
			C450.2,272.9,446.2,276.7,441.4,276.6z"/>
	</g>
	<g>
		<path d="M190.1,793.2c5.8,10.5,11.8,21.4,18.4,33.2c-7,0-13.1,0.1-19.2-0.1c-0.8,0-1.6-1.6-2.2-2.6c-3.9-7.2-7.8-14.4-11.7-21.6
			c-3.5-6.5-3.4-6.5-11.9-5.1c0,9.6,0,19.2,0,29.2c-6.2,0-11.9,0-18,0c-0.1-1.5-0.2-3-0.2-4.5c0-24.7,0.1-49.3-0.1-74
			c0-4.3,1.3-5.5,5.4-5.3c11.2,0.5,22.6-0.4,33.7,1.2c19.1,2.8,27.7,26.5,15.8,41.7C197.7,788.4,193.8,790.3,190.1,793.2z
			 M163.5,757.6c0,4.7,0,8.3,0,11.9c0,3.7,0,7.4,0,11.7c5.9-0.4,11.1-0.3,16.2-1.2c5.4-1,7.7-4.7,7.7-10.7c0-5.6-2.3-9.5-7.5-10.5
			C174.7,757.9,169.4,758,163.5,757.6z"/>
		<path d="M552.2,793.4c5.7,10.5,11.7,21.3,18.1,33c-6.9,0-12.5,0.1-18-0.1c-1.1-0.1-2.4-1.5-3.1-2.7c-3.9-7-7.8-14.1-11.5-21.2
			c-3.6-6.8-3.5-6.8-12.1-5.4c0,9.6,0,19.2,0,29.4c-5.5,0-10.5,0-15.5,0c-3.3,0-2.5-2.4-2.5-4.3c0-20,0-39.9,0-59.9
			c0-5.3-0.1-10.7,0.2-16c0.1-1.3,1.6-3.7,2.5-3.7c12,0,24.1-0.6,36,0.9c22.4,2.8,25.7,28.8,16.6,40.9
			C560.2,787.9,556.1,790.2,552.2,793.4z M525.9,780.8c4.2,0,8,0.1,11.8,0c1.2,0,2.4-0.4,3.6-0.7c5.8-1.6,7.9-4.2,8-10
			c0.2-6.4-1.9-10.1-7.6-11.2c-5.1-1-10.4-0.8-15.7-1.2C525.9,765.8,525.9,773,525.9,780.8z"/>
		<path d="M435.6,826.4c-7.2,0-13.5,0.2-19.8-0.2c-1.1-0.1-2.5-1.9-3.2-3.3c-5.8-10.6-11.5-21.3-17.4-32.3
			c-4.8,5.1-9.2,9.7-8.1,17.5c0.8,5.8,0.2,11.8,0.2,18.3c-5.4,0-10.4,0.2-15.3-0.2c-1-0.1-2.5-2.7-2.5-4.2
			c-0.2-10.3-0.1-20.7-0.1-31c0-14.5,0.2-28.9-0.1-43.4c-0.1-4.4,1.5-5.6,5.5-5.3c3.9,0.3,7.9,0.1,12.4,0.1c0,10.8,0,21.4,0,32
			c0.4,0.1,0.7,0.3,1.1,0.4c5-6.5,10.8-12.6,14.9-19.6c5.9-10.2,13.7-15.1,25.5-12.8c1.4,0.3,2.9,0.2,5.5,0.3
			c-2.7,3.8-4.8,6.8-7,9.7c-5.6,7.2-11.1,14.4-16.9,21.5c-1.7,2.1-1.6,3.7-0.3,6c7.8,13.7,15.5,27.5,23.1,41.3
			C433.8,822.7,434.5,824.2,435.6,826.4z"/>
		<path d="M290,826.3c-6.7,0-12.7,0-19.2,0c-1.4-4.2-2.8-8.6-4.2-13.1c-0.7-2.3-1.5-3.6-4.3-3.5c-7.1,0.2-14.3-0.1-21.4,0.2
			c-1.4,0.1-3.4,1.6-4.1,2.9c-1.6,3.4-2.4,7.2-3.8,10.7c-0.5,1.2-2.1,2.6-3.3,2.7c-5.1,0.3-10.3,0.1-16.3,0.1
			c2.7-7.8,5.2-15,7.7-22.2c6.7-19.2,13.4-38.3,20-57.5c1.1-3.2,2.5-4.5,6.1-4.4c13.3,0.2,13.4,0,17.8,12.4
			c7.9,21.9,15.7,43.9,23.5,65.9C289.1,822.2,289.4,824,290,826.3z M251.9,766.5c-3,9.6-5.7,18-8.4,26.7c5.8,0,10.8,0,16.6,0
			C257.4,784.3,254.8,776,251.9,766.5z"/>
		<path d="M495.5,742.7c0.3,0.6,0.4,0.8,0.4,0.9c1.4,14.3,1.4,14.3-12.8,14.3c-7,0-14,0-21.3,0c0,6.2,0,12.2,0,18.7
			c7.9,0,15.6,0.3,23.3-0.1c4.8-0.3,6.2,1.4,5.7,6c-0.3,2.8-0.1,5.7-0.1,9.2c-9.8,0-19.3,0-29,0c0,6.3,0,12,0,18.4
			c11.2,0,22.5,0,34.1,0c0,5.7,0,10.8,0,16.2c-17.1,0-34.1,0-51.6,0c-0.1-1.4-0.3-2.8-0.3-4.3c0-24.8,0-49.6-0.1-74.4
			c0-3.9,1.1-5.2,5.1-5.2c14.5,0.2,28.9,0.1,43.4,0.1C493.3,742.4,494.4,742.6,495.5,742.7z"/>
		<path d="M357.2,768c-5.7,0.4-11.1,0.7-16.6,1.1c-0.7-1.7-1.2-3.1-1.9-4.5c-2.4-4.8-6.1-8-11.6-8.4c-5.5-0.4-10,2.2-12.3,7
			c-2.1,4.3-3.8,9-4.5,13.7c-1.3,8.9-1.3,17.9,2.5,26.4c2.4,5.5,6.1,9.4,12.7,9.5c6.8,0.1,11.3-3.4,13.8-9.3
			c1.4-3.4,2.8-4.6,6.6-3.7c3.6,0.9,7.5,0.9,11.2,1.2c0.8,9.7-9.2,22.6-20.1,25.3c-19.5,4.9-36.7-2.4-42.6-23.4
			c-5-17.5-4.3-34.6,6.9-50c7.4-10.2,22.2-14.4,35.9-10.5C347.3,745.5,356,756.1,357.2,768z"/>
		<path d="M97.6,758.1c-7.2,0-13.8,0-20.7,0c0-5.3,0-10.1,0-15.3c19.6,0,39,0,58.8,0c0,4.8,0,9.8,0,15.2c-6.4,0-12.7,0-19.5,0
			c-0.1,2.2-0.2,4-0.2,5.7c0,19.2-0.1,38.4,0.1,57.6c0,3.9-0.8,5.7-5,5.2c-2.7-0.3-5.5-0.3-8.2,0c-4,0.5-5.2-1-5.2-5
			c0.2-17.8,0.1-35.6,0.1-53.5C97.6,765,97.6,761.9,97.6,758.1z"/>
	</g>
</g>
</svg>
